<svg xmlns="http://www.w3.org/2000/svg" viewBox="0 0 50 50"><defs><style>.cls-1{fill:#419fcc;}.cls-2{fill:#fff;}</style></defs><g id="LOGO_REF" data-name="LOGO REF"><circle class="cls-1" cx="25" cy="25" r="25"/><path class="cls-2" d="M44.45,19.63A9.92,9.92,0,0,0,44.26,18a11.67,11.67,0,0,0-3.56-6.23A18.53,18.53,0,0,0,34.93,8.1,26.46,26.46,0,0,0,25,6.16a26,26,0,0,0-8.43,1.38A19.17,19.17,0,0,0,10,11.24a13.05,13.05,0,0,0-3.9,5.92,10.76,10.76,0,0,0,.31,7.36,23.88,23.88,0,0,0,2.85,4.79l6.33,8.93c1,1.41,1.92,2.91,3,4.24a3.47,3.47,0,0,0,3.66,1.19,6.92,6.92,0,0,0,2.19-1.17,6.72,6.72,0,0,0,1.53-1.43c1.69-2.29-.49-4.59-1.79-6.43L21.56,31q-2.52-3.57-5-7.13A13.31,13.31,0,0,1,15.33,22,3.4,3.4,0,0,1,15,20c.34-2.08,2.79-3.08,4.54-3.65a18.9,18.9,0,0,1,4.14-.84c.49,0,1,0,1.45-.06a2.45,2.45,0,0,0,1.32-.36,1.9,1.9,0,0,0,.7-.88l.11-.28a.66.66,0,0,0-.57-.91c-.47,0-.95-.05-1.43-.05a21,21,0,0,0-6.48,1,11.27,11.27,0,0,0-4.37,2.36,5.76,5.76,0,0,0-1.94,4.43,9.07,9.07,0,0,0,2,4.43q4.68,6.66,9.38,13.31A1,1,0,0,1,23.65,40l-1.77,1.24a1,1,0,0,1-.57.18,1,1,0,0,1-.82-.42q-4.63-6.54-9.26-13.07a22.44,22.44,0,0,1-2.59-4.3c-1.56-3.81,0-7.85,2.95-10.49a16.88,16.88,0,0,1,5.77-3.21A23.9,23.9,0,0,1,34,10.39c3.62,1.48,7.09,4.23,7.85,8.07A8.69,8.69,0,0,1,42,19.71a8.09,8.09,0,0,1-1.67,5.15c-2.1,2.68-5.68,3.74-9.08,3.93-.52,0-1.05,0-1.57,0l-1.22,0a1,1,0,0,1-1-1,3.06,3.06,0,0,1,3.06-3.06h.32a13.15,13.15,0,0,0,3.2-.28A4.89,4.89,0,0,0,37,22.63a4.6,4.6,0,0,0-.15-4.9,7.63,7.63,0,0,0-2.55-2.41,15.52,15.52,0,0,0-2.5-1.2,3.55,3.55,0,0,0-1.35-.28A1.9,1.9,0,0,0,28.7,15l-.06.14a.54.54,0,0,0,.37.71,15.16,15.16,0,0,1,2.76.92c1.42.64,3.93,2.14,3.26,4.07-.56,1.62-2.83,1.39-4.18,1.39h-.32A5.55,5.55,0,0,0,25,27.81a3.43,3.43,0,0,0,1,2.42,3.38,3.38,0,0,0,2.39,1.05c.46,0,.88,0,1.29,0,.61,0,1.17,0,1.71,0a18.49,18.49,0,0,0,5.79-1.2,11.84,11.84,0,0,0,5.1-3.67A10.56,10.56,0,0,0,44.45,19.63Z"/></g></svg>