<?xml version="1.0" standalone="no"?>
<!DOCTYPE svg PUBLIC "-//W3C//DTD SVG 20010904//EN"
 "http://www.w3.org/TR/2001/REC-SVG-20010904/DTD/svg10.dtd">
<svg version="1.0" xmlns="http://www.w3.org/2000/svg"
 width="250.000000pt" height="250.000000pt" viewBox="0 0 250.000000 250.000000"
 preserveAspectRatio="xMidYMid meet">
<metadata>
Created by potrace 1.14, written by Peter Selinger 2001-2017
</metadata>
<g transform="translate(0.000000,250.000000) scale(0.100000,-0.100000)"
fill="#000000" stroke="none">
<path d="M1105 2474 c-91 -14 -198 -39 -260 -61 -411 -147 -708 -485 -802
-915 -25 -117 -25 -380 1 -498 105 -483 474 -852 956 -956 107 -23 370 -26
475 -5 495 98 875 470 981 961 26 119 26 381 0 500 -103 476 -464 843 -936
951 -83 19 -344 34 -415 23z m395 -319 c224 -45 419 -143 546 -276 101 -107
150 -213 160 -349 12 -151 -40 -285 -151 -397 -133 -133 -306 -193 -561 -193
-120 0 -134 2 -164 22 -96 66 -112 188 -41 300 58 92 137 128 280 128 99 0
150 19 165 61 28 81 -66 170 -238 225 -84 26 -95 47 -47 94 43 43 92 41 195
-9 150 -73 226 -167 226 -281 0 -141 -103 -220 -289 -220 -125 -1 -201 -52
-201 -136 0 -52 16 -58 158 -51 245 10 409 93 490 245 89 167 56 331 -97 482
-156 155 -404 243 -681 244 -364 1 -675 -156 -785 -395 -57 -125 -54 -235 9
-364 33 -67 542 -798 573 -822 8 -6 22 -9 31 -6 31 11 122 83 122 97 0 7 -112
172 -250 367 -137 195 -263 380 -280 412 -95 177 -9 351 218 440 42 16 118 38
167 48 104 22 284 26 303 7 19 -19 14 -45 -16 -79 -27 -30 -33 -32 -133 -40
-120 -11 -227 -37 -316 -80 -69 -33 -107 -72 -124 -128 -19 -64 -17 -68 413
-673 129 -182 148 -217 148 -278 0 -54 -19 -89 -76 -138 -66 -59 -129 -87
-191 -86 -70 0 -114 32 -184 130 -247 350 -422 599 -458 652 -98 146 -140 280
-127 412 33 346 344 592 826 654 64 8 304 -4 380 -19z"/>
</g>
</svg>
